<mxfile host="app.diagrams.net" modified="2023-07-31T15:13:26.727Z" agent="Mozilla/5.0 (Windows NT 10.0; Win64; x64) AppleWebKit/537.36 (KHTML, like Gecko) Chrome/115.0.0.0 Safari/537.36" version="21.6.6" etag="Y5k29BGRSv87_Z_H_ot8" type="github">
  <diagram name="Page-1" id="Vt_JMNnsB8rub9yBkSw7">
    <mxGraphModel>
      <root>
        <mxCell id="0" />
        <mxCell id="1" parent="0" />
      </root>
    </mxGraphModel>
  </diagram>
</mxfile>
